
<global>
amp_veltrack=0
ampeg_attack=0.001
ampeg_release=1.25
</global>

<group>
color=red
group_label=Main_Hits_RR1
seq_length=4
seq_position=1

<region>
hivel=25
key=D3
lovel=0
offset=2260
sample=SnareLine_SnaresOff_RubberTip_Hits_P_D3_RR1.opus
</region>

<region>
hivel=50
key=D3
lovel=26
offset=1791
sample=SnareLine_SnaresOff_RubberTip_Hits_MP_D3_RR1.opus
</region>

<region>
hivel=75
key=D3
lovel=51
offset=1342
sample=SnareLine_SnaresOff_RubberTip_Hits_MF_D3_RR1.opus
</region>

<region>
hivel=127
key=D3
lovel=101
offset=1027
sample=SnareLine_SnaresOff_RubberTip_Hits_FF_D3_RR1.opus
</region>

<region>
hivel=100
key=D3
lovel=76
offset=1976
sample=SnareLine_SnaresOff_RubberTip_Hits_F_D3_RR1.opus
</region>

<region>
hivel=25
key=D#3
lovel=0
offset=2714
sample=SnareLine_SnaresOff_RubberTip_Halfway_Hits_P_D3_RR1.opus
</region>

<region>
hivel=50
key=D#3
lovel=26
offset=1874
sample=SnareLine_SnaresOff_RubberTip_Halfway_Hits_MP_D3_RR1.opus
</region>

<region>
hivel=75
key=D#3
lovel=51
offset=1627
sample=SnareLine_SnaresOff_RubberTip_Halfway_Hits_MF_D3_RR1.opus
</region>

<region>
hivel=127
key=D#3
lovel=101
offset=1650
sample=SnareLine_SnaresOff_RubberTip_Halfway_Hits_FF_D3_RR1.opus
</region>

<region>
hivel=100
key=D#3
lovel=76
offset=1495
sample=SnareLine_SnaresOff_RubberTip_Halfway_Hits_F_D3_RR1.opus
</region>

<region>
hivel=25
key=E3
lovel=0
offset=2325
sample=SnareLine_SnaresOff_RubberTip_Edge_Hits_P_D3_RR1.opus
</region>

<region>
hivel=50
key=E3
lovel=26
offset=3007
sample=SnareLine_SnaresOff_RubberTip_Edge_Hits_MP_D3_RR1.opus
</region>

<region>
hivel=75
key=E3
lovel=51
offset=1839
sample=SnareLine_SnaresOff_RubberTip_Edge_Hits_MF_D3_RR1.opus
</region>

<region>
hivel=127
key=E3
lovel=101
offset=1256
sample=SnareLine_SnaresOff_RubberTip_Edge_Hits_FF_D3_RR1.opus
</region>

<region>
hivel=100
key=E3
lovel=76
offset=1718
sample=SnareLine_SnaresOff_RubberTip_Edge_Hits_F_D3_RR1.opus
</region>
</group>

<group>
color=red
group_label=Main_Hits_RR3
seq_length=4
seq_position=2

<region>
hivel=25
key=D3
lovel=0
offset=2636
sample=SnareLine_SnaresOff_RubberTip_Hits_P_D3_RR3.opus
</region>

<region>
hivel=50
key=D3
lovel=26
offset=1433
sample=SnareLine_SnaresOff_RubberTip_Hits_MP_D3_RR3.opus
</region>

<region>
hivel=75
key=D3
lovel=51
offset=1694
sample=SnareLine_SnaresOff_RubberTip_Hits_MF_D3_RR3.opus
</region>

<region>
hivel=127
key=D3
lovel=101
offset=685
sample=SnareLine_SnaresOff_RubberTip_Hits_FF_D3_RR3.opus
</region>

<region>
hivel=100
key=D3
lovel=76
offset=1768
sample=SnareLine_SnaresOff_RubberTip_Hits_F_D3_RR3.opus
</region>

<region>
hivel=25
key=D#3
lovel=0
offset=2419
sample=SnareLine_SnaresOff_RubberTip_Halfway_Hits_P_D3_RR3.opus
</region>

<region>
hivel=50
key=D#3
lovel=26
offset=1064
sample=SnareLine_SnaresOff_RubberTip_Halfway_Hits_MP_D3_RR3.opus
</region>

<region>
hivel=75
key=D#3
lovel=51
offset=1227
sample=SnareLine_SnaresOff_RubberTip_Halfway_Hits_MF_D3_RR3.opus
</region>

<region>
hivel=127
key=D#3
lovel=101
offset=1360
sample=SnareLine_SnaresOff_RubberTip_Halfway_Hits_FF_D3_RR3.opus
</region>

<region>
hivel=100
key=D#3
lovel=76
offset=688
sample=SnareLine_SnaresOff_RubberTip_Halfway_Hits_F_D3_RR3.opus
</region>

<region>
hivel=25
key=E3
lovel=0
offset=1425
sample=SnareLine_SnaresOff_RubberTip_Edge_Hits_P_D3_RR3.opus
</region>

<region>
hivel=50
key=E3
lovel=26
offset=2520
sample=SnareLine_SnaresOff_RubberTip_Edge_Hits_MP_D3_RR3.opus
</region>

<region>
hivel=75
key=E3
lovel=51
offset=1257
sample=SnareLine_SnaresOff_RubberTip_Edge_Hits_MF_D3_RR3.opus
</region>

<region>
hivel=127
key=E3
lovel=101
offset=1143
sample=SnareLine_SnaresOff_RubberTip_Edge_Hits_FF_D3_RR3.opus
</region>

<region>
hivel=100
key=E3
lovel=76
offset=1433
sample=SnareLine_SnaresOff_RubberTip_Edge_Hits_F_D3_RR3.opus
</region>
</group>

<group>
color=red
group_label=Main_Hits_RR5
seq_length=4
seq_position=3

<region>
hivel=25
key=D3
lovel=0
offset=1565
sample=SnareLine_SnaresOff_RubberTip_Hits_P_D3_RR5.opus
</region>

<region>
hivel=50
key=D3
lovel=26
offset=1671
sample=SnareLine_SnaresOff_RubberTip_Hits_MP_D3_RR5.opus
</region>

<region>
hivel=75
key=D3
lovel=51
offset=2466
sample=SnareLine_SnaresOff_RubberTip_Hits_MF_D3_RR5.opus
</region>

<region>
hivel=127
key=D3
lovel=101
offset=1303
sample=SnareLine_SnaresOff_RubberTip_Hits_FF_D3_RR5.opus
</region>

<region>
hivel=100
key=D3
lovel=76
offset=1447
sample=SnareLine_SnaresOff_RubberTip_Hits_F_D3_RR5.opus
</region>

<region>
hivel=25
key=D#3
lovel=0
offset=1595
sample=SnareLine_SnaresOff_RubberTip_Halfway_Hits_P_D3_RR5.opus
</region>

<region>
hivel=50
key=D#3
lovel=26
offset=1157
sample=SnareLine_SnaresOff_RubberTip_Halfway_Hits_MP_D3_RR5.opus
</region>

<region>
hivel=75
key=D#3
lovel=51
offset=995
sample=SnareLine_SnaresOff_RubberTip_Halfway_Hits_MF_D3_RR5.opus
</region>

<region>
hivel=127
key=D#3
lovel=101
offset=1453
sample=SnareLine_SnaresOff_RubberTip_Halfway_Hits_FF_D3_RR5.opus
</region>

<region>
hivel=100
key=D#3
lovel=76
offset=685
sample=SnareLine_SnaresOff_RubberTip_Halfway_Hits_F_D3_RR5.opus
</region>

<region>
hivel=25
key=E3
lovel=0
offset=1835
sample=SnareLine_SnaresOff_RubberTip_Edge_Hits_P_D3_RR5.opus
</region>

<region>
hivel=50
key=E3
lovel=26
offset=3346
sample=SnareLine_SnaresOff_RubberTip_Edge_Hits_MP_D3_RR5.opus
</region>

<region>
hivel=75
key=E3
lovel=51
offset=1225
sample=SnareLine_SnaresOff_RubberTip_Edge_Hits_MF_D3_RR5.opus
</region>

<region>
hivel=127
key=E3
lovel=101
offset=1370
sample=SnareLine_SnaresOff_RubberTip_Edge_Hits_FF_D3_RR5.opus
</region>

<region>
hivel=100
key=E3
lovel=76
offset=1621
sample=SnareLine_SnaresOff_RubberTip_Edge_Hits_F_D3_RR5.opus
</region>
</group>

<group>
color=red
group_label=Main_Hits_RR7
seq_length=4
seq_position=4

<region>
hivel=25
key=D3
lovel=0
offset=1412
sample=SnareLine_SnaresOff_RubberTip_Hits_P_D3_RR7.opus
</region>

<region>
hivel=50
key=D3
lovel=26
offset=1320
sample=SnareLine_SnaresOff_RubberTip_Hits_MP_D3_RR7.opus
</region>

<region>
hivel=75
key=D3
lovel=51
offset=1733
sample=SnareLine_SnaresOff_RubberTip_Hits_MF_D3_RR7.opus
</region>

<region>
hivel=127
key=D3
lovel=101
offset=1295
sample=SnareLine_SnaresOff_RubberTip_Hits_FF_D3_RR7.opus
</region>

<region>
hivel=100
key=D3
lovel=76
offset=1734
sample=SnareLine_SnaresOff_RubberTip_Hits_F_D3_RR7.opus
</region>

<region>
hivel=50
key=D#3
lovel=26
offset=1549
sample=SnareLine_SnaresOff_RubberTip_Halfway_Hits_MP_D3_RR7.opus
</region>

<region>
hivel=75
key=D#3
lovel=51
offset=1240
sample=SnareLine_SnaresOff_RubberTip_Halfway_Hits_MF_D3_RR7.opus
</region>

<region>
hivel=127
key=D#3
lovel=101
offset=684
sample=SnareLine_SnaresOff_RubberTip_Halfway_Hits_FF_D3_RR7.opus
</region>

<region>
hivel=100
key=D#3
lovel=76
offset=1431
sample=SnareLine_SnaresOff_RubberTip_Halfway_Hits_F_D3_RR7.opus
</region>

<region>
hivel=25
key=E3
lovel=0
offset=1434
sample=SnareLine_SnaresOff_RubberTip_Edge_Hits_P_D3_RR7.opus
</region>

<region>
hivel=50
key=E3
lovel=26
offset=1402
sample=SnareLine_SnaresOff_RubberTip_Edge_Hits_MP_D3_RR7.opus
</region>

<region>
hivel=75
key=E3
lovel=51
offset=1513
sample=SnareLine_SnaresOff_RubberTip_Edge_Hits_MF_D3_RR7.opus
</region>

<region>
hivel=127
key=E3
lovel=101
offset=1148
sample=SnareLine_SnaresOff_RubberTip_Edge_Hits_FF_D3_RR7.opus
</region>

<region>
hivel=100
key=E3
lovel=76
offset=1263
sample=SnareLine_SnaresOff_RubberTip_Edge_Hits_F_D3_RR7.opus
</region>

<region>
hivel=25
key=D#3
lovel=0
offset=2419
sample=SnareLine_SnaresOff_RubberTip_Halfway_Hits_P_D3_RR3.opus
</region>
</group>

<group>
color=green
group_label=Alt_Hits_RR1
seq_length=2
seq_position=1

<region>
hivel=25
key=E4
lovel=0
offset=2646
sample=SnareLine_SnaresOff_RubberTip_Buzz_Stroke_P_D3_RR1.opus
</region>

<region>
hivel=50
key=E4
lovel=26
offset=3414
sample=SnareLine_SnaresOff_RubberTip_Buzz_Stroke_MP_D3_RR1.opus
</region>

<region>
hivel=75
key=E4
lovel=51
offset=1426
sample=SnareLine_SnaresOff_RubberTip_Buzz_Stroke_MF_D3_RR1.opus
</region>

<region>
hivel=127
key=E4
lovel=101
offset=856
sample=SnareLine_SnaresOff_RubberTip_Buzz_Stroke_FF_D3_RR1.opus
</region>

<region>
hivel=100
key=E4
lovel=76
offset=1914
sample=SnareLine_SnaresOff_RubberTip_Buzz_Stroke_F_D3_RR1.opus
</region>

<region>
hivel=25
key=F4
lovel=0
offset=2729
sample=SnareLine_SnaresOff_RubberTip_Dry_Buzz_Stroke_P_D3_RR1.opus
</region>

<region>
hivel=50
key=F4
lovel=26
offset=2382
sample=SnareLine_SnaresOff_RubberTip_Dry_Buzz_Stroke_MP_D3_RR1.opus
</region>

<region>
hivel=75
key=F4
lovel=51
offset=3022
sample=SnareLine_SnaresOff_RubberTip_Dry_Buzz_Stroke_MF_D3_RR1.opus
</region>

<region>
hivel=127
key=F4
lovel=101
offset=2229
sample=SnareLine_SnaresOff_RubberTip_Dry_Buzz_Stroke_FF_D3_RR1.opus
</region>

<region>
hivel=100
key=F4
lovel=76
offset=2451
sample=SnareLine_SnaresOff_RubberTip_Dry_Buzz_Stroke_F_D3_RR1.opus
</region>

<region>
hivel=25
key=F#4
lovel=0
offset=2486
sample=SnareLine_SnaresOff_RubberTip_Edge_Buzz_Stroke_P_D3_RR1.opus
</region>

<region>
hivel=50
key=F#4
lovel=26
offset=2136
sample=SnareLine_SnaresOff_RubberTip_Edge_Buzz_Stroke_MP_D3_RR1.opus
</region>

<region>
hivel=75
key=F#4
lovel=51
offset=927
sample=SnareLine_SnaresOff_RubberTip_Edge_Buzz_Stroke_MF_D3_RR1.opus
</region>

<region>
hivel=127
key=F#4
lovel=101
offset=1774
sample=SnareLine_SnaresOff_RubberTip_Edge_Buzz_Stroke_FF_D3_RR1.opus
</region>

<region>
hivel=100
key=F#4
lovel=76
offset=1892
sample=SnareLine_SnaresOff_RubberTip_Edge_Buzz_Stroke_F_D3_RR1.opus
</region>

<region>
hivel=25
key=G4
lovel=0
offset=3641
sample=SnareLine_SnaresOff_RubberTip_Edge_Dry_Buzz_Stroke_P_D3_RR1.opus
</region>

<region>
hivel=50
key=G4
lovel=26
offset=2529
sample=SnareLine_SnaresOff_RubberTip_Edge_Dry_Buzz_Stroke_MP_D3_RR1.opus
</region>

<region>
hivel=75
key=G4
lovel=51
offset=2682
sample=SnareLine_SnaresOff_RubberTip_Edge_Dry_Buzz_Stroke_MF_D3_RR1.opus
</region>

<region>
hivel=127
key=G4
lovel=101
offset=2854
sample=SnareLine_SnaresOff_RubberTip_Edge_Dry_Buzz_Stroke_FF_D3_RR1.opus
</region>

<region>
hivel=100
key=G4
lovel=76
offset=2489
sample=SnareLine_SnaresOff_RubberTip_Edge_Dry_Buzz_Stroke_F_D3_RR1.opus
</region>

<region>
hivel=25
key=G#4
lovel=0
offset=2338
sample=SnareLine_SnaresOff_RubberTip_Halfway_Buzz_Stroke_P_D3_RR1.opus
</region>

<region>
hivel=50
key=G#4
lovel=26
offset=2274
sample=SnareLine_SnaresOff_RubberTip_Halfway_Buzz_Stroke_MP_D3_RR1.opus
</region>

<region>
hivel=75
key=G#4
lovel=51
offset=2767
sample=SnareLine_SnaresOff_RubberTip_Halfway_Buzz_Stroke_MF_D3_RR1.opus
</region>

<region>
hivel=127
key=G#4
lovel=101
offset=4217
sample=SnareLine_SnaresOff_RubberTip_Halfway_Buzz_Stroke_FF_D3_RR1.opus
</region>

<region>
hivel=100
key=G#4
lovel=76
offset=2029
sample=SnareLine_SnaresOff_RubberTip_Halfway_Buzz_Stroke_F_D3_RR1.opus
</region>

<region>
hivel=25
key=A4
lovel=0
offset=4143
sample=SnareLine_SnaresOff_RubberTip_Halfway_Dry_Buzz_Stroke_P_D3_RR1.opus
</region>

<region>
hivel=50
key=A4
lovel=26
offset=4076
sample=SnareLine_SnaresOff_RubberTip_Halfway_Dry_Buzz_Stroke_MP_D3_RR1.opus
</region>

<region>
hivel=127
key=A4
lovel=101
offset=2551
sample=SnareLine_SnaresOff_RubberTip_Halfway_Dry_Buzz_Stroke_FF_D3_RR1.opus
</region>

<region>
hivel=100
key=A4
lovel=76
offset=3252
sample=SnareLine_SnaresOff_RubberTip_Halfway_Dry_Buzz_Stroke_F_D3_RR1.opus
</region>

<region>
hivel=75
key=A4
lovel=51
offset=1912
sample=SnareLine_SnaresOff_RubberTip_Halfway_Dry_Buzz_Stroke_MF_D3_RR3.opus
</region>
</group>

<group>
color=green
group_label=Alt_Hits_RR3
seq_length=4
seq_position=2

<region>
hivel=25
key=E4
lovel=0
offset=3161
sample=SnareLine_SnaresOff_RubberTip_Buzz_Stroke_P_D3_RR3.opus
</region>

<region>
hivel=50
key=E4
lovel=26
offset=2836
sample=SnareLine_SnaresOff_RubberTip_Buzz_Stroke_MP_D3_RR3.opus
</region>

<region>
hivel=75
key=E4
lovel=51
offset=1279
sample=SnareLine_SnaresOff_RubberTip_Buzz_Stroke_MF_D3_RR3.opus
</region>

<region>
hivel=127
key=E4
lovel=101
offset=1225
sample=SnareLine_SnaresOff_RubberTip_Buzz_Stroke_FF_D3_RR3.opus
</region>

<region>
hivel=100
key=E4
lovel=76
offset=1745
sample=SnareLine_SnaresOff_RubberTip_Buzz_Stroke_F_D3_RR3.opus
</region>

<region>
hivel=25
key=F4
lovel=0
offset=2659
sample=SnareLine_SnaresOff_RubberTip_Dry_Buzz_Stroke_P_D3_RR3.opus
</region>

<region>
hivel=50
key=F4
lovel=26
offset=3671
sample=SnareLine_SnaresOff_RubberTip_Dry_Buzz_Stroke_MP_D3_RR3.opus
</region>

<region>
hivel=75
key=F4
lovel=51
offset=2772
sample=SnareLine_SnaresOff_RubberTip_Dry_Buzz_Stroke_MF_D3_RR3.opus
</region>

<region>
hivel=127
key=F4
lovel=101
offset=2363
sample=SnareLine_SnaresOff_RubberTip_Dry_Buzz_Stroke_FF_D3_RR3.opus
</region>

<region>
hivel=100
key=F4
lovel=76
offset=3272
sample=SnareLine_SnaresOff_RubberTip_Dry_Buzz_Stroke_F_D3_RR3.opus
</region>

<region>
hivel=25
key=F#4
lovel=0
offset=3195
sample=SnareLine_SnaresOff_RubberTip_Edge_Buzz_Stroke_P_D3_RR3.opus
</region>

<region>
hivel=50
key=F#4
lovel=26
offset=1829
sample=SnareLine_SnaresOff_RubberTip_Edge_Buzz_Stroke_MP_D3_RR3.opus
</region>

<region>
hivel=75
key=F#4
lovel=51
offset=1950
sample=SnareLine_SnaresOff_RubberTip_Edge_Buzz_Stroke_MF_D3_RR3.opus
</region>

<region>
hivel=127
key=F#4
lovel=101
offset=1297
sample=SnareLine_SnaresOff_RubberTip_Edge_Buzz_Stroke_FF_D3_RR3.opus
</region>

<region>
hivel=100
key=F#4
lovel=76
offset=2162
sample=SnareLine_SnaresOff_RubberTip_Edge_Buzz_Stroke_F_D3_RR3.opus
</region>

<region>
hivel=25
key=G4
lovel=0
offset=2370
sample=SnareLine_SnaresOff_RubberTip_Edge_Dry_Buzz_Stroke_P_D3_RR3.opus
</region>

<region>
hivel=50
key=G4
lovel=26
offset=3251
sample=SnareLine_SnaresOff_RubberTip_Edge_Dry_Buzz_Stroke_MP_D3_RR3.opus
</region>

<region>
hivel=75
key=G4
lovel=51
offset=2329
sample=SnareLine_SnaresOff_RubberTip_Edge_Dry_Buzz_Stroke_MF_D3_RR3.opus
</region>

<region>
hivel=127
key=G4
lovel=101
offset=2743
sample=SnareLine_SnaresOff_RubberTip_Edge_Dry_Buzz_Stroke_FF_D3_RR3.opus
</region>

<region>
hivel=100
key=G4
lovel=76
offset=2827
sample=SnareLine_SnaresOff_RubberTip_Edge_Dry_Buzz_Stroke_F_D3_RR3.opus
</region>

<region>
hivel=25
key=G#4
lovel=0
offset=3401
sample=SnareLine_SnaresOff_RubberTip_Halfway_Buzz_Stroke_P_D3_RR3.opus
</region>

<region>
hivel=50
key=G#4
lovel=26
offset=2699
sample=SnareLine_SnaresOff_RubberTip_Halfway_Buzz_Stroke_MP_D3_RR3.opus
</region>

<region>
hivel=75
key=G#4
lovel=51
offset=2522
sample=SnareLine_SnaresOff_RubberTip_Halfway_Buzz_Stroke_MF_D3_RR3.opus
</region>

<region>
hivel=127
key=G#4
lovel=101
offset=1741
sample=SnareLine_SnaresOff_RubberTip_Halfway_Buzz_Stroke_FF_D3_RR3.opus
</region>

<region>
hivel=100
key=G#4
lovel=76
offset=1274
sample=SnareLine_SnaresOff_RubberTip_Halfway_Buzz_Stroke_F_D3_RR3.opus
</region>

<region>
hivel=25
key=A4
lovel=0
offset=2238
sample=SnareLine_SnaresOff_RubberTip_Halfway_Dry_Buzz_Stroke_P_D3_RR3.opus
</region>

<region>
hivel=50
key=A4
lovel=26
offset=4407
sample=SnareLine_SnaresOff_RubberTip_Halfway_Dry_Buzz_Stroke_MP_D3_RR3.opus
</region>

<region>
hivel=75
key=A4
lovel=51
offset=1912
sample=SnareLine_SnaresOff_RubberTip_Halfway_Dry_Buzz_Stroke_MF_D3_RR3.opus
</region>

<region>
hivel=127
key=A4
lovel=101
offset=1618
sample=SnareLine_SnaresOff_RubberTip_Halfway_Dry_Buzz_Stroke_FF_D3_RR3.opus
</region>

<region>
hivel=100
key=A4
lovel=76
offset=2143
sample=SnareLine_SnaresOff_RubberTip_Halfway_Dry_Buzz_Stroke_F_D3_RR3.opus
</region>
</group>

<group>
amp_veltrack=0
ampeg_release=0.05
color=blue
group_label=Rolls_RR1_51-75
loop_mode=loop_continuous
seq_length=2
seq_position=1
xfin_hicc1=75
xfin_locc1=51
xfout_hicc1=99
xfout_locc1=75

<region>
hivel=127
key=D2
loop_end=123576
loop_mode=loop_continuous
loop_start=25733
loop_xfade=11713
lovel=1
offset=644
sample=SnareLine_SnaresOff_RubberTip_Buzz_Roll_MF_D3_RR1.opus
</region>

<region>
hivel=127
key=D#2
loop_end=123546
loop_mode=loop_continuous
loop_start=25727
loop_xfade=11710
lovel=1
offset=714
sample=SnareLine_SnaresOff_RubberTip_Halfway_Buzz_Roll_MF_D3_RR1.opus
</region>

<region>
hivel=127
key=E2
loop_end=123782
loop_mode=loop_continuous
loop_start=25776
loop_xfade=11733
lovel=1
offset=742
sample=SnareLine_SnaresOff_RubberTip_Edge_Buzz_Roll_MF_D3_RR1.opus
</region>
</group>

<group>
amp_veltrack=0
ampeg_release=0.05
color=blue
group_label=Rolls_RR1_0-25
loop_mode=loop_continuous
seq_length=2
seq_position=1
xfin_hicc1=25
xfout_hicc1=50
xfout_locc1=25

<region>
hivel=127
key=D2
loop_end=122328
loop_mode=loop_continuous
loop_start=25473
loop_xfade=11595
lovel=1
offset=780
sample=SnareLine_SnaresOff_RubberTip_Buzz_Roll_P_D3_RR1.opus
</region>

<region>
hivel=127
key=D#2
loop_end=122098
loop_mode=loop_continuous
loop_start=25425
loop_xfade=11573
lovel=1
offset=659
sample=SnareLine_SnaresOff_RubberTip_Halfway_Buzz_Roll_P_D3_RR1.opus
</region>

<region>
hivel=127
key=E2
loop_end=124271
loop_mode=loop_continuous
loop_start=25878
loop_xfade=11779
lovel=1
offset=815
sample=SnareLine_SnaresOff_RubberTip_Edge_Buzz_Roll_P_D3_RR1.opus
</region>
</group>

<group>
amp_veltrack=0
ampeg_release=0.05
color=blue
group_label=Rolls_RR1_26-50
loop_mode=loop_continuous
seq_length=2
seq_position=1
xfin_hicc1=50
xfin_locc1=26
xfout_hicc1=74
xfout_locc1=50

<region>
hivel=127
key=D2
loop_end=122751
loop_mode=loop_continuous
loop_start=25561
loop_xfade=11635
lovel=1
offset=588
sample=SnareLine_SnaresOff_RubberTip_Buzz_Roll_MP_D3_RR1.opus
</region>

<region>
hivel=127
key=D#2
loop_end=122946
loop_mode=loop_continuous
loop_start=25602
loop_xfade=11653
lovel=1
offset=676
sample=SnareLine_SnaresOff_RubberTip_Halfway_Buzz_Roll_MP_D3_RR1.opus
</region>

<region>
hivel=127
key=E2
loop_end=122759
loop_mode=loop_continuous
loop_start=25563
loop_xfade=11636
lovel=1
offset=808
sample=SnareLine_SnaresOff_RubberTip_Edge_Buzz_Roll_MP_D3_RR1.opus
</region>
</group>

<group>
amp_veltrack=0
ampeg_release=0.05
color=blue
group_label=Rolls_RR1_101-127
loop_mode=loop_continuous
seq_length=2
seq_position=1
xfin_hicc1=127
xfin_locc1=101
xfout_hicc1=127
xfout_locc1=127

<region>
hivel=127
key=D2
loop_end=122262
loop_mode=loop_continuous
loop_start=25460
loop_xfade=11588
lovel=1
offset=690
sample=SnareLine_SnaresOff_RubberTip_Buzz_Roll_FF_D3_RR1.opus
</region>

<region>
hivel=127
key=D#2
loop_end=122838
loop_mode=loop_continuous
loop_start=25579
loop_xfade=11643
lovel=1
offset=712
sample=SnareLine_SnaresOff_RubberTip_Halfway_Buzz_Roll_FF_D3_RR1.opus
</region>

<region>
hivel=127
key=E2
loop_end=122788
loop_mode=loop_continuous
loop_start=25569
loop_xfade=11638
lovel=1
offset=595
sample=SnareLine_SnaresOff_RubberTip_Edge_Buzz_Roll_FF_D3_RR1.opus
</region>
</group>

<group>
amp_veltrack=0
ampeg_release=0.05
color=blue
group_label=Rolls_RR1_76-100
loop_mode=loop_continuous
seq_length=2
seq_position=1
xfin_hicc1=100
xfin_locc1=76
xfout_hicc1=124
xfout_locc1=100

<region>
hivel=127
key=D2
loop_end=123286
loop_mode=loop_continuous
loop_start=25673
loop_xfade=11685
lovel=1
offset=638
sample=SnareLine_SnaresOff_RubberTip_Buzz_Roll_F_D3_RR1.opus
</region>

<region>
hivel=127
key=D#2
loop_end=124061
loop_mode=loop_continuous
loop_start=25834
loop_xfade=11759
lovel=1
offset=712
sample=SnareLine_SnaresOff_RubberTip_Halfway_Buzz_Roll_F_D3_RR1.opus
</region>

<region>
hivel=127
key=E2
loop_end=123107
loop_mode=loop_continuous
loop_start=25635
loop_xfade=11669
lovel=1
offset=709
sample=SnareLine_SnaresOff_RubberTip_Edge_Buzz_Roll_F_D3_RR1.opus
</region>
</group>

<group>
amp_veltrack=0
ampeg_release=0.05
color=blue
group_label=Rolls_RR2_51-75
loop_mode=loop_continuous
seq_length=2
seq_position=2
xfin_hicc1=75
xfin_locc1=51
xfout_hicc1=99
xfout_locc1=75

<region>
hivel=127
key=D2
loop_end=122883
loop_mode=loop_continuous
loop_start=25589
loop_xfade=11647
lovel=1
offset=700
sample=SnareLine_SnaresOff_RubberTip_Buzz_Roll_MF_D3_RR2.opus
</region>

<region>
hivel=127
key=D#2
loop_end=123030
loop_mode=loop_continuous
loop_start=25619
loop_xfade=11661
lovel=1
offset=603
sample=SnareLine_SnaresOff_RubberTip_Halfway_Buzz_Roll_MF_D3_RR2.opus
</region>

<region>
hivel=127
key=E2
loop_end=123134
loop_mode=loop_continuous
loop_start=25641
loop_xfade=11671
lovel=1
offset=718
sample=SnareLine_SnaresOff_RubberTip_Edge_Buzz_Roll_MF_D3_RR2.opus
</region>
</group>

<group>
amp_veltrack=0
ampeg_release=0.05
color=blue
group_label=Rolls_RR2_0-25
loop_mode=loop_continuous
seq_length=2
seq_position=2
xfin_hicc1=25
xfout_hicc1=50
xfout_locc1=25

<region>
hivel=127
key=D2
loop_end=121751
loop_mode=loop_continuous
loop_start=25353
loop_xfade=11540
lovel=1
offset=815
sample=SnareLine_SnaresOff_RubberTip_Buzz_Roll_P_D3_RR2.opus
</region>

<region>
hivel=127
key=D#2
loop_end=122458
loop_mode=loop_continuous
loop_start=25500
loop_xfade=11607
lovel=1
offset=863
sample=SnareLine_SnaresOff_RubberTip_Halfway_Buzz_Roll_P_D3_RR2.opus
</region>

<region>
hivel=127
key=E2
loop_end=123312
loop_mode=loop_continuous
loop_start=25678
loop_xfade=11688
lovel=1
offset=762
sample=SnareLine_SnaresOff_RubberTip_Edge_Buzz_Roll_P_D3_RR2.opus
</region>
</group>

<group>
amp_veltrack=0
ampeg_release=0.05
color=blue
group_label=Rolls_RR2_26-50
loop_mode=loop_continuous
seq_length=2
seq_position=2
xfin_hicc1=50
xfin_locc1=26
xfout_hicc1=74
xfout_locc1=50

<region>
hivel=127
key=D2
loop_end=122296
loop_mode=loop_continuous
loop_start=25467
loop_xfade=11592
lovel=1
offset=685
sample=SnareLine_SnaresOff_RubberTip_Buzz_Roll_MP_D3_RR2.opus
</region>

<region>
hivel=127
key=D#2
loop_end=122812
loop_mode=loop_continuous
loop_start=25574
loop_xfade=11641
lovel=1
offset=641
sample=SnareLine_SnaresOff_RubberTip_Halfway_Buzz_Roll_MP_D3_RR2.opus
</region>

<region>
hivel=127
key=E2
loop_end=122492
loop_mode=loop_continuous
loop_start=25507
loop_xfade=11610
lovel=1
offset=796
sample=SnareLine_SnaresOff_RubberTip_Edge_Buzz_Roll_MP_D3_RR2.opus
</region>
</group>

<group>
amp_veltrack=0
ampeg_release=0.05
color=blue
group_label=Rolls_RR2_101-127
loop_mode=loop_continuous
seq_length=2
seq_position=2
xfin_hicc1=127
xfin_locc1=101
xfout_hicc1=127
xfout_locc1=127

<region>
hivel=127
key=D2
loop_end=122747
loop_mode=loop_continuous
loop_start=25560
loop_xfade=11634
lovel=1
offset=577
sample=SnareLine_SnaresOff_RubberTip_Buzz_Roll_FF_D3_RR2.opus
</region>

<region>
hivel=127
key=D#2
loop_end=122516
loop_mode=loop_continuous
loop_start=25512
loop_xfade=11613
lovel=1
offset=582
sample=SnareLine_SnaresOff_RubberTip_Halfway_Buzz_Roll_FF_D3_RR2.opus
</region>

<region>
hivel=127
key=E2
loop_end=122489
loop_mode=loop_continuous
loop_start=25507
loop_xfade=11610
lovel=1
offset=690
sample=SnareLine_SnaresOff_RubberTip_Edge_Buzz_Roll_FF_D3_RR2.opus
</region>
</group>

<group>
amp_veltrack=0
ampeg_release=0.05
color=blue
group_label=Rolls_RR2_76-100
loop_mode=loop_continuous
seq_length=2
seq_position=2
xfin_hicc1=100
xfin_locc1=76
xfout_hicc1=124
xfout_locc1=100

<region>
hivel=127
key=D2
loop_end=122853
loop_mode=loop_continuous
loop_start=25583
loop_xfade=11644
lovel=1
offset=590
sample=SnareLine_SnaresOff_RubberTip_Buzz_Roll_F_D3_RR2.opus
</region>

<region>
hivel=127
key=D#2
loop_end=123235
loop_mode=loop_continuous
loop_start=25662
loop_xfade=11681
lovel=1
offset=618
sample=SnareLine_SnaresOff_RubberTip_Halfway_Buzz_Roll_F_D3_RR2.opus
</region>

<region>
hivel=127
key=E2
loop_end=122867
loop_mode=loop_continuous
loop_start=25586
loop_xfade=11646
lovel=1
offset=701
sample=SnareLine_SnaresOff_RubberTip_Edge_Buzz_Roll_F_D3_RR2.opus
</region>
</group>

<group>
amp_veltrack=0
ampeg_attack=0.02
ampeg_release=1.5
color=blue
group_label=Rolls_RR1_RELEASE_101-127
offset=128000
seq_length=2
seq_position=1
trigger=release
xfin_hicc1=127
xfin_locc1=101
xfout_hicc1=127
xfout_locc1=127

<region>
hivel=127
key=D2
lovel=1
sample=SnareLine_SnaresOff_RubberTip_Buzz_Roll_FF_D3_RR1.opus
</region>

<region>
hivel=127
key=D#2
lovel=1
sample=SnareLine_SnaresOff_RubberTip_Halfway_Buzz_Roll_FF_D3_RR1.opus
</region>

<region>
hivel=127
key=E2
lovel=1
sample=SnareLine_SnaresOff_RubberTip_Edge_Buzz_Roll_FF_D3_RR1.opus
</region>
</group>

<group>
amp_veltrack=0
ampeg_attack=0.02
ampeg_release=1.5
color=blue
group_label=Rolls_RR1_RELEASE_76-100
offset=128000
seq_length=2
seq_position=1
trigger=release
xfin_hicc1=100
xfin_locc1=76
xfout_hicc1=124
xfout_locc1=100

<region>
hivel=127
key=D2
lovel=1
sample=SnareLine_SnaresOff_RubberTip_Buzz_Roll_F_D3_RR1.opus
</region>

<region>
hivel=127
key=D#2
lovel=1
sample=SnareLine_SnaresOff_RubberTip_Halfway_Buzz_Roll_F_D3_RR1.opus
</region>

<region>
hivel=127
key=E2
lovel=1
sample=SnareLine_SnaresOff_RubberTip_Edge_Buzz_Roll_F_D3_RR1.opus
</region>
</group>

<group>
amp_veltrack=0
ampeg_attack=0.02
ampeg_release=1.5
color=blue
group_label=Rolls_RR1_RELEASE_26-50
offset=128000
seq_length=2
seq_position=1
trigger=release
xfin_hicc1=50
xfin_locc1=26
xfout_hicc1=74
xfout_locc1=50

<region>
hivel=127
key=D2
lovel=1
sample=SnareLine_SnaresOff_RubberTip_Buzz_Roll_MP_D3_RR1.opus
</region>

<region>
hivel=127
key=D#2
lovel=1
sample=SnareLine_SnaresOff_RubberTip_Halfway_Buzz_Roll_MP_D3_RR1.opus
</region>

<region>
hivel=127
key=E2
lovel=1
sample=SnareLine_SnaresOff_RubberTip_Edge_Buzz_Roll_MP_D3_RR1.opus
</region>
</group>

<group>
amp_veltrack=0
ampeg_attack=0.02
ampeg_release=1.5
color=blue
group_label=Rolls_RR1_RELEASE_0-25
offset=128000
seq_length=2
seq_position=1
trigger=release
xfin_hicc1=25
xfout_hicc1=50
xfout_locc1=25

<region>
hivel=127
key=D2
lovel=1
sample=SnareLine_SnaresOff_RubberTip_Buzz_Roll_P_D3_RR1.opus
</region>

<region>
hivel=127
key=D#2
lovel=1
sample=SnareLine_SnaresOff_RubberTip_Halfway_Buzz_Roll_P_D3_RR1.opus
</region>

<region>
hivel=127
key=E2
lovel=1
sample=SnareLine_SnaresOff_RubberTip_Edge_Buzz_Roll_P_D3_RR1.opus
</region>
</group>

<group>
amp_veltrack=0
ampeg_attack=0.02
ampeg_release=1.5
color=blue
group_label=Rolls_RR1_RELEASE_51-75
offset=128000
seq_length=2
seq_position=1
trigger=release
xfin_hicc1=75
xfin_locc1=51
xfout_hicc1=99
xfout_locc1=75

<region>
hivel=127
key=D2
lovel=1
sample=SnareLine_SnaresOff_RubberTip_Buzz_Roll_MF_D3_RR1.opus
</region>

<region>
hivel=127
key=D#2
lovel=1
sample=SnareLine_SnaresOff_RubberTip_Halfway_Buzz_Roll_MF_D3_RR1.opus
</region>

<region>
hivel=127
key=E2
lovel=1
sample=SnareLine_SnaresOff_RubberTip_Edge_Buzz_Roll_MF_D3_RR1.opus
</region>
</group>

<group>
amp_veltrack=0
ampeg_attack=0.02
ampeg_release=1.5
color=blue
group_label=Rolls_RR2_RELEASE_101-127
offset=128000
seq_length=2
seq_position=2
trigger=release
xfin_hicc1=127
xfin_locc1=101
xfout_hicc1=127
xfout_locc1=127

<region>
hivel=127
key=D2
lovel=1
sample=SnareLine_SnaresOff_RubberTip_Buzz_Roll_FF_D3_RR2.opus
</region>

<region>
hivel=127
key=D#2
lovel=1
sample=SnareLine_SnaresOff_RubberTip_Halfway_Buzz_Roll_FF_D3_RR2.opus
</region>

<region>
hivel=127
key=E2
lovel=1
sample=SnareLine_SnaresOff_RubberTip_Edge_Buzz_Roll_FF_D3_RR2.opus
</region>
</group>

<group>
amp_veltrack=0
ampeg_attack=0.02
ampeg_release=1.5
color=blue
group_label=Rolls_RR2_RELEASE_76-100
offset=128000
seq_length=2
seq_position=2
trigger=release
xfin_hicc1=100
xfin_locc1=76
xfout_hicc1=124
xfout_locc1=100

<region>
hivel=127
key=D2
lovel=1
sample=SnareLine_SnaresOff_RubberTip_Buzz_Roll_F_D3_RR2.opus
</region>

<region>
hivel=127
key=D#2
lovel=1
sample=SnareLine_SnaresOff_RubberTip_Halfway_Buzz_Roll_F_D3_RR2.opus
</region>

<region>
hivel=127
key=E2
lovel=1
sample=SnareLine_SnaresOff_RubberTip_Edge_Buzz_Roll_F_D3_RR2.opus
</region>
</group>

<group>
amp_veltrack=0
ampeg_attack=0.02
ampeg_release=1.5
color=blue
group_label=Rolls_RR2_RELEASE_26-50
offset=128000
seq_length=2
seq_position=2
trigger=release
xfin_hicc1=50
xfin_locc1=26
xfout_hicc1=74
xfout_locc1=50

<region>
hivel=127
key=D2
lovel=1
sample=SnareLine_SnaresOff_RubberTip_Buzz_Roll_MP_D3_RR2.opus
</region>

<region>
hivel=127
key=D#2
lovel=1
sample=SnareLine_SnaresOff_RubberTip_Halfway_Buzz_Roll_MP_D3_RR2.opus
</region>

<region>
hivel=127
key=E2
lovel=1
sample=SnareLine_SnaresOff_RubberTip_Edge_Buzz_Roll_MP_D3_RR2.opus
</region>
</group>

<group>
amp_veltrack=0
ampeg_attack=0.02
ampeg_release=1.5
color=blue
group_label=Rolls_RR2_RELEASE_0-25
offset=128000
seq_length=2
seq_position=2
trigger=release
xfin_hicc1=25
xfout_hicc1=50
xfout_locc1=25

<region>
hivel=127
key=D2
lovel=1
sample=SnareLine_SnaresOff_RubberTip_Buzz_Roll_P_D3_RR2.opus
</region>

<region>
hivel=127
key=D#2
lovel=1
sample=SnareLine_SnaresOff_RubberTip_Halfway_Buzz_Roll_P_D3_RR2.opus
</region>

<region>
hivel=127
key=E2
lovel=1
sample=SnareLine_SnaresOff_RubberTip_Edge_Buzz_Roll_P_D3_RR2.opus
</region>
</group>

<group>
amp_veltrack=0
ampeg_attack=0.02
ampeg_release=1.5
color=blue
group_label=Rolls_RR2_RELEASE_51-75
offset=128000
seq_length=2
seq_position=2
trigger=release
xfin_hicc1=75
xfin_locc1=51
xfout_hicc1=99
xfout_locc1=75

<region>
hivel=127
key=D2
lovel=1
sample=SnareLine_SnaresOff_RubberTip_Buzz_Roll_MF_D3_RR2.opus
</region>

<region>
hivel=127
key=D#2
lovel=1
sample=SnareLine_SnaresOff_RubberTip_Halfway_Buzz_Roll_MF_D3_RR2.opus
</region>

<region>
hivel=127
key=E2
lovel=1
sample=SnareLine_SnaresOff_RubberTip_Edge_Buzz_Roll_MF_D3_RR2.opus
</region>
</group>